<svg xmlns="http://www.w3.org/2000/svg" width="83" height="83" viewBox="0 0 300 300"><path fill="#fff" d="M244.2,157h-15c0,0.2,0,0.3,0,0.5c0,43.7-35.5,79.2-79.2,79.2c-43.7,0-79.2-35.5-79.2-79.2
	c0-42.7,34-77.6,76.3-79.1c0,0.9,0,1.7,0,2.4V87c0,5.5,3.9,7.8,8.8,5.2l6.3-3.5c4.8-2.6,12.7-7,17.5-9.6l6.3-3.5
	c4.8-2.6,4.8-7,0-9.6l-6.3-3.5c-4.8-2.6-12.7-7-17.5-9.6l-6.3-3.5c-4.8-2.6-8.8-0.3-8.8,5.2v6.2c0,0.8,0,1.6,0,2.5
	c-50.6,1.5-91.3,43.1-91.3,94.1c0,51.9,42.2,94.2,94.2,94.2s94.2-42.2,94.2-94.2C244.2,157.3,244.2,157.1,244.2,157z"/></svg>
